<?xml version="1.0" encoding="UTF-8"?>
<svg xmlns="http://www.w3.org/2000/svg" viewBox="0 0 1000 363" width="1000" height="363">
<path d="M818.76 0.79C878.9 60.94 939.05 121.09 999.2 181.24C998.79 184.49 991.35 190.61 988.75 193.19C982.63 199.24 976.86 205.84 970.26 211.34C966.34 214.6 963.22 219.04 959.26 222.34C956.11 224.96 953.45 228.52 950.51 231.44C943.1 238.81 935.78 246.26 928.35 253.6C903.88 277.77 880.19 302.51 855.34 326.3C846.16 335.08 837.55 344.52 828.39 353.26C825.64 355.89 822.02 361.75 818.21 362.23C795.59 338.69 772.14 315.63 748.79 292.77C726.44 270.89 705.04 247.98 682.59 226.21C671.43 215.4 660.77 204.03 649.58 193.21C646.78 190.49 638.09 183.69 637.88 180.14C643.29 175.48 648.14 169.96 653.19 164.9C662.39 155.66 671.64 146.47 680.85 137.23C710.82 107.19 740.65 77 770.91 47.25C782.37 35.99 793.65 24.51 805.02 13.15C808 10.17 815.08 1.31 818.76 0.79ZM818.21 41.23C771.54 87.9 724.88 134.57 678.21 181.24C725.06 228.1 771.91 274.95 818.76 321.8C865.43 275.32 912.1 228.83 958.77 182.34C911.92 135.31 865.06 88.27 818.21 41.23ZM656.49 74.8C658.18 77.84 657.27 83.06 657.27 86.63C657.27 95.98 657.46 105.35 657.23 114.69C635.24 136.69 613.25 158.69 591.27 180.69C613.24 202.88 635.21 225.06 657.19 247.25C657.63 256.38 657.27 265.61 657.27 274.75C657.27 278.57 658.19 283.94 656.49 287.25C621.26 252.1 586.03 216.95 550.79 181.79C551.2 178.71 555.42 175.65 557.72 173.46C564.15 167.32 570.6 160.86 576.86 154.53C593.66 137.52 610.42 120.44 627.58 103.82C634.42 97.2 641.19 90.4 647.82 83.57C650.64 80.68 653.34 77.36 656.49 74.8Z" fill="#f0d480" fill-rule="evenodd" stroke="#f0d480" stroke-width="0.25" stroke-linejoin="round"/>
</svg>